<svg id="Layer_1" xmlns="http://www.w3.org/2000/svg" viewBox="0 0 814 158"><style>.st0{fill:none}.st1{fill:#fff}.st3{fill:#fc0400}.st5{fill:#ffe104}</style><circle class="st0" cx="371.3" cy="120.5" r="4.8"/><path d="M128.6 79.1c-.1.3-.1.6-.1.9l.1-.9z"/><path class="st0" d="M131.5 38.8c1.2-.1 6.8-.3 12.5 2.1-5.7-2.4-11.3-2.2-12.5-2.1zm-2.2 13.6c-.1 0-.3-.1-.4-.2.1.1.2.1.4.2zM143 33.5c-.8-2.1-2.2-4.1-4.6-5.4 2.3 1.3 3.7 3.4 4.6 5.4zm-11.7 5.3c.2-1 .5-1.9.8-2.9-.3 1-.6 1.9-.8 2.9zm-28.4 9.9c-2 .4-4.3 1.2-5.3 3.1l-.3.6.3-.6c1.1-1.8 3.3-2.7 5.3-3.1zm.6 25.9c.3.3.5.4.6.6l-.6-.6zm-6.4-16.7c-.1-.7-.2-1.5-.3-2.3 0 .8.1 1.6.3 2.3.4 1.8 1 3.3 1.1 3.7-.2-.4-.8-1.9-1.1-3.7 2.6.8 5.1 1.4 7.8 1.9.1-1.5.3-3 .5-4.4-.2 1.4-.3 3-.5 4.4-2.7-.5-5.3-1.1-7.8-1.9zm34.1-26.5c-1.5 3.5-2.3 6.7-2.8 9.3.5-2.6 1.3-5.8 2.8-9.3zm-27 40.5c-2.8-3.1-4.7-7.1-5.5-9.1.8 1.9 2.7 6 5.5 9.1zm17.3-19.7c.2 0 .3.1.5.1s.5.1.8.1c-.3 0-.5-.1-.8-.1-.2 0-.3-.1-.5-.1zM138 28c.1 0 .2.1.3.1-.1 0-.2 0-.3-.1zm-8.5 46c.3-1.9 1.3-7.1 2.1-11.5-.8 4.4-1.8 9.6-2.1 11.5zm133.4-18.9c-1.7-.4-2.9-.4-2.9-.4.3 0 1.4 0 2.9.4zm-131-25.2c-.3 0-1 .1-1.7.2.7-.1 1.3-.2 1.7-.2zm5.5 41.3l.3-.3v-.2.2l-.3.3zm-5.3-11.3c0-.1.1-.1 0 0 1-4.8 1.8-8.1 1.8-8.1 1.9-.5 3.4-1.6 3.4-1.6s-1.5 1-3.4 1.6c.1 0-.8 3.3-1.8 8.1.1-.1 0-.1 0 0zm5.4-32.1zm-10.4 2.9c-2.3.6-5 1.7-7 3.7-1.4 1.4-2.4 3-3 4.4.6-1.5 1.6-3 3-4.4 2-2 4.7-3.1 7-3.7zm-4 4.9c0-1.3 1-2.3 2.3-2.3-1.3 0-2.3 1-2.3 2.3 0 1.3 1 2.3 2.3 2.3-1.3 0-2.3-1.1-2.3-2.3zm12.8-8.3s-.6 1.1-1.5 2.8c.9-1.7 1.5-2.8 1.5-2.8zm141.9 49.4c-.2.2-.5.4-.7.6.2-.2.4-.4.7-.6zm-3.5 2.3c-2.8 1.4-5.3 1.8-5.3 1.8s2.5-.4 5.3-1.8zm2.7-1.8c-.5.4-1 .7-1.5 1 .6-.3 1.1-.6 1.5-1zm3.1.3c1.1.3 2.1.6 3.1.8-1-.3-2.1-.5-3.1-.8-.4-.1-.8-.2-1.2-.4.4.1.8.2 1.2.4zm3.1.7c1.8.3 3.5.5 5.3.5-1.8 0-3.5-.2-5.3-.5zm5.3.5c2.9 0 5.8-.5 9-1.2-3.2.7-6.1 1.1-9 1.2zm9.5-1.4c1.5-.4 3-.8 4.6-1.3-1.6.5-3.1 1-4.6 1.3zm11-3.3c-1.9.6-3.8 1.2-5.5 1.7 1.7-.5 3.5-1 5.5-1.7z"/><path class="st1" d="M127.1 30.7c-2.3.6-5 1.7-7 3.7-1.4 1.4-2.4 3-3 4.4-1.3 3.1-1.2 5.8-1.2 5.8s-.6 6 5.6 7.5c.2 0 .3.1.5.1.3 0 .5.1.8.1 2.2.3 4.5.2 6.5 0-.1 0-.3-.1-.4-.2-.2-.1-.4-.3-.5-.6-.5-1.1-.5-4.7-.5-4.7s-.1-2.4.6-6.1c.5-2.6 1.3-5.8 2.8-9.3l.6-1.5c-.3 0-1 .1-1.7.2-.9.1-1.9.3-3.1.6zm-1.7 7.2c-1.3 0-2.3-1-2.3-2.3 0-1.3 1-2.3 2.3-2.3 1.3 0 2.3 1 2.3 2.3-.1 1.2-1.1 2.3-2.3 2.3z"/><path d="M137.9 58.8c-1.9.5-3.8.9-5.8 1.2-.2.8-.3 1.6-.5 2.5-.9 4.4-1.8 9.6-2.1 11.5 0 0 3.6-1.8 5.8-4.1 0 0-.1-6.7 2.3-10.7 0 .1.1-.1.3-.4zm-39.7 2.8s0 .1 0 0c.1.2.2.6.5 1.2.8 1.9 2.7 6 5.5 9.1 0 0 0-.9.1-2.3.1-2.3.3-6 .6-9.8-2.6-.5-5.2-1.1-7.8-1.9.3 1.8.9 3.3 1.1 3.7z" fill="#005fe6"/><path class="st3" d="M122.7 52.4c2.2.3 4.5.2 6.5 0-2 .2-4.2.3-6.5 0zm-6.8-7.8s-.2-2.7 1.2-5.8c-1.3 3.1-1.2 5.8-1.2 5.8s-.6 6 5.6 7.5c-6.2-1.4-5.6-7.5-5.6-7.5zm11.2-13.9c1.1-.3 2.1-.5 3-.6-.8.1-1.8.3-3 .6z"/><path d="M240.9 90.3c-.9-.5-1.8-.2-2.4-.8-.7-.7-.2-1.3-.6-1.6-.2-.2-.9.1-1.1 0-3.6 3.9-4.8 4.8-7.7 7.1 0 0 3.6.3 13.8-3.4-2.4-.2-1.1-.7-2-1.3zm62.6-14.5l-.8.3c-1.6.5-3.2.9-4.6 1.3-.2 0-.4.1-.5.1-5.1 1.2-9.5 1.6-14.3.8-1-.2-2.1-.4-3.1-.7-.4-.1-.8-.2-1.2-.4-.4-.1-.8-.3-1.1-.4-.2.2-.5.4-.7.6-.5.4-1 .7-1.5 1-.3.1-.5.3-.8.4l-.6.3c-2.8 1.4-5.3 1.8-5.3 1.8.1.2.3.7.5 1.3 0 .1.1.1.1.2.1.2.1.3.2.5s.1.3.2.5c.2.7.5 1.4.6 2.2.2.6.3 1.2.4 1.8.5.1 1 .1 1.5.2 10.5 1 20.8-1.9 25.1-4.2 2.2-1.2 4-2.3 5.5-3.3.4-.3.8-.6 1.1-.9.9-.7 1.7-1.5 2.5-2.2.9-.9 1.7-1.8 2.4-2.8-2.1.5-3.9 1.1-5.6 1.6z" fill="#ced148"/><path d="M270.9 87.3c.5.1 1 .1 1.5.2-.5-.1-1-.2-1.5-.2zm33.2-8.3c.9-.7 1.7-1.5 2.5-2.2-.8.7-1.6 1.5-2.5 2.2zm4.9-5c-.8 1-1.5 1.9-2.4 2.8.8-.9 1.6-1.8 2.4-2.8z"/><path class="st5" d="M137.9 58.8c-1.9.5-3.8.9-5.8 1.2 1.9-.3 3.9-.7 5.8-1.2z"/><path class="st5" d="M137.4 50.2s-1.5 1-3.4 1.6c0 0-.9 3.3-1.8 8v.3c1.9-.3 3.9-.7 5.8-1.2.5-.8 1.8-2.6 3.1-4-.1 0-.4-3.2-3.7-4.7zm.9-22c-.2-.1-.3-.1-.4-.2-.1-.1-.3-.1-.4-.2-.5-.2-1-.4-1.6-.5 0 0-.6 1.1-1.5 2.8-.7 1.5-1.6 3.6-2.4 5.8-.3.9-.6 1.9-.8 2.9h.2c1.2-.1 6.8-.3 12.5 2.1 0 0 .3-3.8-1.1-7.4-.7-2-2.1-4.1-4.5-5.3zm-35.4 20.5c-2 .4-4.3 1.2-5.3 3.1l-.3.6c-.4 1-.5 2.1-.5 3.2 0 .8.1 1.5.3 2.3 2.6.8 5.1 1.4 7.8 1.9.1-1.5.3-3 .5-4.4.3-2.7.8-5.2 1.4-7-.1 0-1.9-.1-3.9.3zm147.9 18.9v-.3c-.1.3-.2.5-.2.7-1.6 4.7-5.2 5.9-6.2 11.3-.4 2.2 1.8 3.7 4.3 4.1 2.5.3 5.1-.5 5.2-2.8.4-5.7-2.9-8-3.1-13z"/><path d="M228.3 84.3c.4.9 3.4 1 7.4-.1 0-.2-.1-.4-.1-.7 0-.9-.1-1.9 0-2.6.1-.9.9-1.5 1.2-2.2 0-.1.1-.1.1-.2-2.6-.5-4.4-1.5-4.4-1.5s-4.8 6-4.2 7.3zm22.5-16.7c.2 5.1 3.6 7.3 3.1 13-.2 2.3-2.7 3.1-5.2 2.8-2.5-.4-4.7-1.8-4.3-4.1 1-5.4 4.6-6.6 6.2-11.3-3.3 5.4-10.4 8.4-10.7 13.3-.6 7.9 6.9 7.9 9.3 8.7 3.5.3 9.6.2 8.3-7.7-1-5-5.3-8.7-6.7-14.7zm.9-6.9c.3-.7 2.3-2.6 5.5-4.3 0 0-.5-10.1-3.5-10.8-3.1-.1-6.2 9.6-6.2 9.6 2.6 2.4 4 4.8 4.2 5.5zm9.6 21.1v.2c.1.7.7 1.5.6 2.4-.1.7-.4 1.6-.7 2.5-.1.2-.1.4-.2.5 3.6 2 6.5 2.7 7.1 2.4 1.2-.8-2.2-8.3-2.2-8.3s-1.9.4-4.6.3zm-16-25.4c-12.7-3.1-12.4 9.7-20.5 9.5 1 7.5 12.5 9.9 14.7 9.9.4 0 .7 0 1-.1.7-.5.7-1.8 1.6-2.1 1-.2 1.6-1.5 2.5-1.9.8-.4 1.5-.4 2.3-.9.7-.4.9-1.6 1.8-2 .8-.4 2.1-1.5 2.5-4.3-.3-.9-2.1-7.2-5.9-8.1zm13.7 1.8c-3.9-.1-7.4 5.5-7.8 6.4-.4 2.7.6 4.2 1.3 4.8.8.6.7 1.8 1.3 2.4.6.7 1.3.8 2 1.4.7.7 1 2 1.9 2.5.8.5.5 1.7 1 2.4.3.1.6.2 1 .3 2.1.5 13.9 1.1 16.8-5.8-8-1.8-4.4-14.1-17.5-14.4z" fill="#e20182"/><path class="st1" d="M279.9 104.2H264l-5.4 6.8h-.3l-5.3-6.8h-15.9l12.3 15.7-13.7 17h16.9l5.7-7.2h.3l5.9 7.2h16.3l-13.2-17zm-111.7.1l-4 12.8c-.4 1.4-.7 2.9-.9 4.3h-.3l-5-17.1h-13.4l-5.8 32.6h12.6l1.5-13.9.3-3.9h.4c.1 1.4.4 2.7.8 4.1L159 137h7.6l5.2-14.6c.4-1 .6-2.2.8-3.2h.2l1.8 17.9h12.6l-5.9-32.6h-13.1v-.2zm43.6 19.8h14.9v-6.9h-14.9v-5.1H228v-7.8h-30.8v32.6h31.4V129h-16.8zm76.7-19.9h15.8v32.7h-15.8zm46.5 22.7c-3.4 0-6.1-2.7-6.1-6.1s2.7-6.1 6.1-6.1c1.6 0 2.9.6 4 1.5l8.7-6.9c-3.5-3.7-8.6-6-14.3-6-10.4 0-18.9 7.7-18.9 17.2s8.5 17.2 18.9 17.2c5.8 0 11-2.4 14.4-6.1l-8.6-6.5c-1.1 1.1-2.6 1.8-4.2 1.8zM80.7 80.7c-2.6-.7-5.3-3.4-7.7-5.9L54.4 53.2 73 31.6c2.2-2.4 4.8-4.9 7.4-5.6 1.7-.3 3.1-1.7 3.1-3.5 0-2-1.6-3.6-3.6-3.8h-25c-2 .2-3.6 1.8-3.6 3.8 0 1.9 1.4 3.4 3.2 3.6.7.2.5 1-.6 2.1L43.4 40.3 33 28.2c-1.2-1.2-1.4-1.9-.6-2.1 1.8-.2 3.2-1.7 3.2-3.6 0-2-1.6-3.6-3.6-3.9H7c-2 .3-3.6 1.9-3.6 3.9 0 1.8 1.3 3.3 3.1 3.5 2.6.7 5.1 3.2 7.4 5.6l18.5 21.5-18.6 21.7c-2.4 2.5-5.1 5.2-7.7 5.9C4.4 81 3 82.4 3 84.2c0 2 1.6 3.6 3.6 3.6h25c2 0 3.6-1.6 3.6-3.6 0-1.9-1.4-3.4-3.2-3.6-.7-.2-.5-1 .6-2.2l10.7-12.5 10.8 12.6c1.2 1.2 1.4 1.9.6 2.2-1.8.2-3.2 1.7-3.2 3.6 0 2 1.6 3.6 3.6 3.6h25c2 0 3.6-1.6 3.6-3.6 0-1.9-1.3-3.4-3-3.6zm312.5-64.6c-1.3-3.9-2.9-5.3-5.3-5.8l-.6-.1c-2.5-.2-4.6.7-6.9 4.1-4 5.8-7.5 16.8-8.2 25.8-.8 9.1-.5 35.2 1.1 51.8.2 1.6.6 2.7 1.1 3.4.2.3.5.5.8.6h.2c.3 0 .6-.1 1-.3.7-.5 1.3-1.4 2-2.9 6.2-15.5 13.8-40.5 15.6-49.5 1.7-8.9 1.5-20.4-.8-27.1zm-41.1 63.8c-2.3.6-6.4.6-6.4.6-5.1 0-9.2-1.9-9.2-15.2v-16c0-7.3.3-16.6.3-16.8h12.1c2.3 0 5.7-1 5.7-4.8 0-3.6-2.9-4.8-5.7-4.8h-12.1c0-.6-.3-6.1-.3-6.1 0-3.8-.8-6.7-3.4-6.7-2.5 0-2.6 1.8-4.2 5.9-1.7 4.3-6.9 5.8-13.3 5.7-1 0-1.6.4-1.8 1.1-.2.7.1 1.6 1.1 2.2 3 2 3.4 4.8 4.1 7.4.9 3.6 1 9.7.9 16.1v16c.1 13.8 3.4 26.2 19.1 26.2 0 0 7.4-.8 13.3-3.7 3.7-1.8 5.3-3.1 5.1-5-.2-2.8-2.3-2.9-5.3-2.1zm-48-57.7c-8-6.4-26.1-6-34.9-.9-5.9 3.4-12.4 6.7-18.5 21.5 1.1-1.1 2.3-1.9 3.6-1.8h.1c.2 0 .3.1.5.1 4.4 1.7 5.3 13.2 5.3 13.6.2 0 1.4 0 2.9.4.3.1.6.2 1 .3s.7.2 1.1.4l1.2.6c.2.1.3.2.5.3.5.3.9.6 1.4 1-.3-2.3-.4-4.6-.4-6.7-.1-2.3-.3-5.4 1.9-11.8 2.6-7.7 10.8-11.4 13-11.9s10.4-.4 11.7 5.7c1.5 9.7-3.1 11.7-6 14.1-2 1.7-7.7 3.2-13.4 4.3-.2.1-.3.2-.5.4-3.7 2.3-2.5 8.1.6 8.7 13.7-1.2 28.2-4.6 32.4-9.8 4.5-6.3 9.3-17.1-3.5-28.5z"/><path class="st1" d="M240.8 35.4c4.6 3.1 10.3 1 11.6-2.4 2.3-5.7.7-13.3-5.8-14.3-5.2-.7-9 1-13.4 6.3s-5.3 6.8-6.8 9.2c-.4-6.6-2.8-12-3.9-13.1-1.1-1.1-4.1-2.6-8.1-.7-4 1.8-10.7 4.8-10.7 4.8-3.5 1.7-2.8 7.4 1.5 8.5 3.5.9 5.5 6.4 5.5 10.1 0 3.1.1 21.2.2 27.3 0 .5 0 .7-.1 1.5-.5 4.3-3.9 7.1-6.8 7.1s-6.8-4-7-8.3v-.2c0-.4.3-24.6-.6-33.6-.9-9-9-14.9-15.1-17.1-7.3-2.6-25-5.2-32.7-2.4-2.4.7-5.8 5.5 1.6 5 7.9-.5 13.5 1.3 18.3 3.5s10.2 10.3 10.4 20.5l.1 7.1c.2 11.1.3 22.5-12.2 25.1-10 .9-12-9.4-12-11.8 0-2.4-.5-10.1 8.2-11.7 5.9-1.1 7.8 1.8 10.5 0 2.5-1.8 2.1-5.2-.2-5.9s-6.6-.9-6.8-1c-10.7.2-15.6 1.6-20.9 5.1-1.3.8-2.4 1.8-3.4 2.8-.8.9-1.9 2.3-2.9 4.1 0 .1-.1.2-.1.2-.2.4-.3.7-.5 1.1-1.2 3.2-1.1 7.5-1.1 8.4v.2l-.3.3c-3.5 3.3-7.1 5.3-11 6.6-.9.3-1.8.5-2.7.7-.2 2.1-1.5 3.7-3.2 3.7-1.5 0-2.7-1.2-3.1-2.9-.5 0-1 .1-1.6.1-.4 1.7-1.6 2.9-3.1 2.9-1.7 0-3-1.6-3.2-3.7-.8-.3-1.6-.7-2.3-1.2-.1 0-.1-.1-.2-.1-1-.6-1.9-1.3-2.8-2.1-.2-.2-.4-.3-.5-.5l-.1-.1-.8-.8c-2-2-3.5-4.4-4.7-6.8-.2-.4-.4-.7-.5-1.1-.2-.3-.3-.7-.5-1-.1-.2-.2-.3-.2-.5-.1-.3-.3-.6-.4-.9-.1-.2-.2-.4-.2-.6 0-.1-.1-.1-.1-.2-.2-.4-.3-.8-.4-1.2-.1-.2-.1-.4-.2-.6-.1-.4-.2-.7-.3-1.1-.1-.2-.1-.4-.2-.6 0-.2-.1-.3-.1-.5 0-.1-.1-.3-.1-.4 0-.1-.1-.2-.1-.4-.2-.9-.4-1.9-.6-2.8-.4-2.5-.5-5.1-.3-7.5 1.2-10.6 9-17.9 14-20.7 5.2-3 10.3-4.1 18.2-3.5 7.4.5 4.1-4.2 1.7-5-7.5-1.8-14.7-1.9-21.1-.9-.3 0-.6.1-.9.1h-.1c-2.4.4-4.7 1.4-6.9 2.2-1.3.4-3.9 1.6-3.9 1.6-12.2 5.8-20.4 16.8-20.4 31.4 0 19.8 14.7 35.8 33.5 37.8.8.1 1.7.2 2.6.2h2.8c.9 0 1.8-.1 2.6-.2.9-.1 1.7-.2 2.6-.4.2 0 .3-.1.5-.1.7-.1 1.5-.3 2.2-.5.2 0 .3-.1.5-.1.9-.2 1.8-.5 2.7-.8l1.5-.6c.5-.2.9-.4 1.4-.6.4-.2.8-.3 1.2-.5.5-.2 1-.5 1.5-.8 1-.5 2-1.1 2.9-1.8.5-.3 1-.7 1.5-1 .3-.2.7-.5 1-.8 1.2-.9 2.2-1.9 3.3-3l.1-.1 1.3-1.3c.3.5.5 1 .9 1.5.9 1.5 3 4.9 5.4 6.5 6.9 4.6 15.3 4 21 3.1 6.8-1.1 11-7.1 12.8-9.5.7 6.8 2.9 7.4 5.1 7.4l5.1.2 21.8.1c2.2 0 7.5.2 13.5-.8-.2-.2-.3-.3-.4-.5-1.6-2.7 4.4-10.6 4.4-10.6h-.1c-.2-.1-.8-.5-1.6-1h-.1c-2.3-1.7-6.2-5.5-5.7-11.2.2 0 .5.1.7.1 2.7.3 4.2-1.2 5.8-3.1V59c.1-6.5.8-13.7 3.5-18.4 2.6-5.2 5.9-7.1 8.6-5.2z"/><path d="M137.6 59.3c-2.5 3.9-2.3 10.7-2.3 10.7-2.2 2.3-5.7 4.1-5.8 4.1 0 0 3.6-1.8 5.8-4.1-.1-.1-.2-6.8 2.3-10.7 0 0 .1-.2.3-.4-.2.2-.3.4-.3.4zm-5.5.8c-.2.8-.3 1.6-.5 2.5.2-.9.4-1.8.5-2.5zm-.2-30.2l-.6 1.5c.1-.5.3-1 .6-1.5zm-4.1 16.9s0 3.6.5 4.7c-.5-1.1-.4-4.7-.5-4.7 0 0-.1-2.4.6-6.1-.6 3.7-.6 6.1-.6 6.1zM98.2 61.6s0 .1 0 0c.1.2.2.6.5 1.2-.3-.6-.4-1.1-.5-1.2 0 .1 0 0 0 0zm6 10.3s0-.9.1-2.3c-.1 1.4-.1 2.3-.1 2.3zM132.1 60v-.2.2c0 .1 0 .1 0 0zm8.9-5.1c-1.3 1.3-2.6 3.2-3.1 4 .5-.9 1.8-2.7 3.1-4 0 0-.3-3.1-3.6-4.7 3.3 1.5 3.6 4.7 3.6 4.7zm-2.7-26.8c0 .1 0 .1 0 0 0 .1 0 .1 0 0zm-.8-.3c.1.1.3.1.4.2-.1-.1-.2-.1-.4-.2zm-1.6-.5c.6.1 1.1.3 1.6.5-.5-.2-1-.4-1.6-.5zm-1.4 2.8c-.7 1.5-1.6 3.6-2.4 5.8.7-2.2 1.6-4.2 2.4-5.8zm-3.2 8.7h.2-.2zm12.7 2.1s.3-3.7-1.1-7.4c1.5 3.7 1.1 7.4 1.1 7.4zM97.3 52.4c-.4 1-.5 2.1-.5 3.2 0-1.1.1-2.2.5-3.2zm9.4-4c-.6 1.8-1 4.3-1.4 7 .4-2.7.8-5.2 1.4-7 0 0-1.7-.1-3.8.3 2-.4 3.8-.3 3.8-.3zm-4 25.4c-1.8-1.9-3.4-4.2-4.7-6.8 1.2 2.3 2.8 4.7 4.7 6.8zm39.6-16.9c-1.2 1.2-2.2 2.6-2.9 4.1 1-1.8 2.1-3.2 2.9-4.1zm-4.5 9c-.3 1.6-.3 3.2-.1 4.9 0-.9-.1-5.3 1.1-8.4-.4 1.1-.8 2.2-1 3.3v.2zm-12.4-32.6c1.3 0 2.3 1 2.3 2.3s-1 2.3-2.3 2.3c1.3 0 2.3-1 2.3-2.3-.1-1.3-1.1-2.3-2.3-2.3zm138.5 22c.4.1.7.2 1.1.4-.4-.1-.7-.2-1.1-.4zm2.3 1.1c.2.1.3.2.5.3-.2-.2-.3-.3-.5-.3l-1.2-.6c.4.1.8.3 1.2.6zm1.9 1.2c-.4-.3-.9-.6-1.4-1 .5.4 1 .7 1.4 1zm-8.1-2.9c-.1 0-.9-11.7-5.3-13.6 4.4 1.7 5.3 13.2 5.3 13.6z"/><path class="st3" d="M371.3 103.4c-9.5 0-17.2 7.7-17.2 17.2s7.7 17.1 17.2 17.1 17.2-7.7 17.2-17.1-7.8-17.2-17.2-17.2zm0 21.8c-2.6 0-4.8-2.1-4.8-4.8 0-2.6 2.1-4.8 4.8-4.8 2.6 0 4.8 2.1 4.8 4.8 0 2.7-2.2 4.8-4.8 4.8zM117.1 33.9c-7.5 7.1-9.1 23.8-9.1 23.8s-.9 7.6-.9 19.7c.8.5 1.5.9 2.3 1.2v-.4c0-2.3 1.4-4.1 3.2-4.1 1.8 0 3.2 1.9 3.2 4.1 0 .4-.1.9-.2 1.3.5 0 1.1 0 1.6-.1-.1-.4-.1-.8-.1-1.2 0-2.3 1.4-4.1 3.2-4.1 1.8 0 3.2 1.9 3.2 4.1v.4c.9-.2 1.8-.4 2.7-.7l.1-.9s1-8.4 2.5-14.6c1.4-6.2 2.3-10.1 2.3-10.1l-1.4.1s-.2.1-.5 0c-2 .3-4.3.3-6.5 0-.3 0-.5-.1-.8-.1-.2 0-.3-.1-.5-.1-6.2-1.5-5.6-7.5-5.6-7.5s-.2-2.7 1.2-5.8c.6-1.5 1.6-3 3-4.4 2.1-2 4.7-3.1 7-3.7 1.1-.3 2.1-.5 3-.6.8-.1 1.4-.2 1.7-.2.4-.9.9-1.9 1.4-2.8.2-.1-8.5-.4-16 6.7zm-5.4 56.9c-1.2 0-2.3-.1-3.3-.2.4 8.7 1.5 20.2 1.6 21.1.1 1.1 1 1.5 1.7 1.5h.1c-.2-9.8-.2-17.6-.1-22.4zm6.4 43s.2 1.5 1.5 1.5c1.4 0 1.5-1.5 1.5-1.5.5-18 2.6-35.8 3.8-45.3-1.5.5-2.9 1-4.3 1.3-1.8 19.6-2.5 44-2.5 44zm-3.8-12.2c0 .6.5 1.5 1.6 1.5.1 0 .3 0 .4-.1.5-13.4 1.3-26 1.8-32.7-1.3.2-2.6.3-3.8.4-.8 15.3 0 30.4 0 30.9z"/><path d="M142.4 27.5c-2.4-2.2-5.2-3.1-7.3-3.3-2-.2-5.3-.1-9.4 1.2-4.2 1.3-7.5 3.6-9.8 5.6s-5.5 5.1-8.6 15c0 0-6.1-.5-9.9 2.4-3.7 2.9-3.1 7.3-3 8.5 0 .3.2 1.2.5 2.4 0 .2.1.4.2.6.1.4.2.7.3 1.1.1.2.1.4.2.6.1.4.3.8.4 1.2 0 .1 0 .1.1.2.1.2.1.4.2.6.1.3.2.6.4.8.1.2.1.4.2.5.1.3.3.7.5 1 .2.4.4.7.6 1.1 1.3 2.5 2.9 4.8 4.7 6.8l.8.8c.2.2.4.4.7.6.9.8 1.8 1.5 2.8 2.1.1 0 .1.1.2.1-.2-12.2.8-19.7.8-19.7s1.6-16.7 9.1-23.8 16.2-6.8 16.2-6.8c-.5 1-1 1.9-1.4 2.8l-.6 1.5c-1.5 3.5-2.3 6.7-2.8 9.3-.7 3.7-.6 6.1-.6 6.1s0 3.6.5 4.7c.1.3.3.5.5.6.1.1.3.2.4.2.3.1.5 0 .5 0l1.4-.1s-.9 3.9-2.3 10.1c-1.4 6.2-2.5 14.6-2.5 14.6l-.1.9c4-1.2 7.5-3.3 11-6.6l.3-.3v-.2c-.2-1.7-.2-3.3.1-4.9v-.2c.2-1.1.5-2.2 1-3.3.1-.4.3-.7.5-1.1 0-.1.1-.2.1-.2.7-1.5 1.7-2.8 2.9-4.1.8-.9 1.3-1.4 1.3-1.4s-.4-4.6-4.1-7c0 0 1-.7 2.4-3.2 0 0-5.2-1.9-8.3-3.6.3 0 7.6 0 12.9 3.9 0 0 1.2-5.5.3-9.4-.9-4-1.9-6.5-4.3-8.7zm-37.1 27.9c-.2 1.4-.3 3-.5 4.4-.3 3.8-.5 7.5-.6 9.8-.1 1.4-.1 2.3-.1 2.3-2.8-3.1-4.7-7.1-5.5-9.1-.3-.6-.4-1.1-.5-1.1v-.1c-.2-.4-.8-1.9-1.1-3.7-.1-.7-.2-1.5-.3-2.3 0-1.1.1-2.2.5-3.2l.3-.6c1-1.8 3.3-2.7 5.3-3.1 2-.4 3.8-.3 3.8-.3-.5 1.8-.9 4.3-1.3 7zm28.7-3.6c1.9-.5 3.4-1.6 3.4-1.6 3.3 1.5 3.6 4.7 3.6 4.7-1.3 1.3-2.5 3.2-3.1 4-.2.3-.3.4-.3.4-2.5 3.9-2.3 10.7-2.3 10.7-2.2 2.3-5.8 4.1-5.8 4.1.3-1.9 1.3-7.1 2.1-11.5.2-.9.3-1.7.5-2.5v-.3c1-4.7 1.9-8 1.9-8zm10-10.9c-5.7-2.4-11.3-2.2-12.5-2.1h-.2c.2-1 .5-1.9.8-2.9.7-2.2 1.6-4.3 2.4-5.8.8-1.7 1.5-2.8 1.5-2.8.6.1 1.1.3 1.6.5.1.1.3.1.4.2.1 0 .2.1.3.1h.1c2.4 1.2 3.8 3.3 4.6 5.4 1.4 3.7 1 7.4 1 7.4z"/><circle cx="125.4" cy="35.6" r="2.3"/><path d="M279.7 74.3c.6-1 1.1-2.1 1.4-3.4-6.9.1-6.2-8.1-12.9-13.3h-.1c-.4-.3-.9-.7-1.4-1-.2-.1-.3-.2-.5-.3-.4-.2-.8-.4-1.1-.6-.4-.2-.8-.3-1.1-.4-.3-.1-.7-.2-1-.3-1.7-.4-2.9-.4-2.9-.4h-.1s-.8-11.7-5.3-13.6c-.2-.1-.3-.1-.5-.1-1.3 0-2.5.7-3.6 1.8-3.2 3.3-5.5 10-5.5 10s-2.9-.9-6.4 0c-5.5 1.4-7.7 5-9.8 7.7-1.6 1.9-3.1 3.4-5.9 3.1-.2 0-.4 0-.6-.1-.5 5.7 3.3 9.4 5.7 11.1h.1c.7.5 1.3.9 1.6 1h.2s-6 7.9-4.4 10.6c.1.2.2.3.4.5 1.2.9 4.2 1.1 7.8.6-4.6 4-13.2 10.5-13.2 10.5s9.3 2.1 25.9-5c.5.1.9 0 1.2 0s1.6.3 2.3.7c.7.5 2.3-.1 2.3-.1.5.2.9.3 1.3.2 1-.2 1.5-1.4 2.4-1.8.9-.4 1.9-.5 2.6-1 .5-.4.8-.8 1.1-1.3 4.8 2.7 9.4 4 10.8 2.6.4-.4.6-1.1.7-1.9 29.4 4.4 41.9-15.9 42.8-20.4-7 1.7-22.9 8.1-34.3 4.6zm-26.1-28.6c3 .7 3.5 10.8 3.5 10.8-3.2 1.6-5.2 3.6-5.5 4.3-.1-.7-1.5-3.1-4.2-5.5 0-.1 3.1-9.7 6.2-9.6zm-25.3 38.6c-.6-1.3 4.2-7.2 4.2-7.2s1.8.9 4.4 1.5c0 .1-.1.1-.1.2-.3.7-1 1.3-1.2 2.2-.1.7 0 1.7 0 2.6 0 .3 0 .5.1.7-4 1-7 .9-7.4 0zm.8 10.7c3-2.3 4.1-3.2 7.7-7.1.2.1.9-.2 1.1 0 .4.4-.2.9.6 1.6.6.6 1.5.3 2.4.8.9.6-.4 1.1 2 1.2-10.2 3.8-13.8 3.5-13.8 3.5zm20-5c-2.4-.9-9.9-.8-9.3-8.7.4-4.9 7.4-7.9 10.7-13.3.1-.2.2-.5.2-.7v.3c1.4 6.1 5.8 9.7 6.6 14.7 1.4 7.9-4.7 8-8.2 7.7zm19.1-.2c-.6.4-3.5-.3-7.1-2.4.1-.2.2-.3.2-.5.2-.8.6-1.7.7-2.5.1-.9-.5-1.7-.6-2.4v-.2c2.6.1 4.6-.3 4.6-.3s3.3 7.5 2.2 8.3zm-8.6-11.4c-.3-.1-.7-.2-1-.3-.5-.7-.2-2-1-2.4-.9-.5-1.2-1.8-1.9-2.5-.6-.6-1.3-.7-2-1.4-.5-.6-.4-1.7-1.3-2.4-.7-.6-1.7-2.1-1.3-4.8-.4 2.7-1.6 3.9-2.5 4.3-.9.4-1.2 1.5-1.8 2-.8.5-1.5.5-2.3.9-.8.5-1.5 1.7-2.5 1.9-.9.2-1 1.5-1.6 2.1-.3 0-.7.1-1 .1-2.1 0-13.7-2.5-14.7-9.9 8.1.2 7.8-12.6 20.5-9.5 3.8.9 5.7 7.3 5.9 8.2.5-.9 3.9-6.5 7.8-6.4 13.1.3 9.5 12.6 17.3 14.5-2.7 6.8-14.5 6.2-16.6 5.6zm46.9-1.6c-.7.7-1.5 1.5-2.5 2.2-.4.3-.7.6-1.1.9-1.5 1-3.2 2.1-5.5 3.3-4.4 2.4-14.6 5.3-25.1 4.2-.5 0-1-.1-1.5-.2-.1-.6-.2-1.2-.4-1.8-.2-.8-.4-1.5-.6-2.2-.1-.2-.1-.3-.2-.5s-.1-.3-.2-.5c0-.1 0-.1-.1-.2-.2-.7-.4-1.1-.5-1.3 0 0 2.6-.4 5.3-1.8l.6-.3c.2-.2.5-.3.8-.4.5-.3 1-.6 1.5-1 .2-.2.5-.4.7-.6.4.1.7.3 1.1.4s.8.3 1.2.4c1.1.3 2.1.6 3.1.8 4.7.9 9.2.4 14.3-.8.2 0 .4-.1.5-.1 1.5-.4 3-.8 4.6-1.3l.8-.3c1.7-.5 3.6-1.1 5.5-1.7-.6 1-1.4 1.9-2.3 2.8zm-193.8 5.4c1.4 0 2.7-1.2 3.1-2.9.1-.4.2-.8.2-1.3 0-2.3-1.4-4.1-3.2-4.1-1.8 0-3.2 1.9-3.2 4.1v.4c0 2.2 1.4 3.8 3.1 3.8zm7.7-8.2c-1.8 0-3.2 1.9-3.2 4.1 0 .4 0 .8.1 1.2.4 1.7 1.6 2.9 3.1 2.9 1.7 0 3.1-1.6 3.2-3.7v-.4c0-2.3-1.4-4.1-3.2-4.1zm4.5 14.5c-1.2 9.5-3.3 27.3-3.8 45.3 0 0-.1 1.5-1.5 1.5s-1.5-1.5-1.5-1.5.7-24.4 2.5-44c-.9.2-1.7.4-2.6.5-.5 6.7-1.3 19.3-1.8 32.7-.1 0-.2.1-.4.1-1.1 0-1.6-.9-1.6-1.5 0-.5-.8-15.6-.1-30.9-.9 0-1.7.1-2.5.1-.1 4.9-.1 12.7.1 22.3h-.1c-.7 0-1.6-.4-1.7-1.5-.1-.9-1.2-12.4-1.6-21.1-.3 0-.6-.1-.9-.1-.5-.1-1-.1-1.4-.2.4 6.2 1 16.2 1.8 21.5 0 0 .2 3.4 3.8 3.5h.2c.1 2.1.1 4.3.2 6.6 0 0 .1 2.9 3.3 3.4h.8c-.1 2.8-.2 5.7-.2 8.6 0 0-.1 3.5 3.9 3.5 3.3 0 3.4-3.5 3.4-3.5s.9-23.3 4.3-46.4c-.6.3-1.2.5-1.9.8-.1.1-.4.2-.7.3z"/><path class="st1" d="M751.4 117.1c-2.2-1.5-4.5-2.3-7-2.3-2.4 0-4.6.7-6.7 2.1-3.4 2.5-5 5.7-5 9.6 0 2.5.8 4.9 2.4 7.1 2.6 3.1 5.6 4.6 9.1 4.6h.6c2.3 0 4.5-.8 6.7-2.3v2.3h4.7v-23.4h-4.7l-.1 2.3zm0 9.6c0 1.3-.4 2.6-1.3 3.9-1.6 2-3.4 3-5.5 3h-.3c-1.1 0-2.2-.3-3.2-.8-2.5-1.5-3.7-3.6-3.7-6.2 0-1.4.4-2.7 1.3-4.1 1.5-2 3.4-3 5.7-3 1.2 0 2.4.3 3.6 1 2.3 1.6 3.5 3.6 3.5 6l-.1.2zm55.6-22h-4.6v10.1h-4.1v4.7h4.1v18.7h4.6v-18.7h3.9v-4.7H807zm-79.7 25.7c-1.6 2.1-3.5 3.2-5.9 3.2-1.1 0-2.3-.3-3.4-.9-2.4-1.6-3.6-3.6-3.6-6.1 0-1.2.3-2.4 1-3.7 1.6-2.3 3.6-3.4 5.9-3.4 2.5 0 4.5 1.1 6 3.2h.1l3-3.6c-2.5-2.8-5.4-4.2-8.9-4.2-3 0-5.7 1-8 3-2.6 2.5-3.8 5.4-3.8 8.7 0 2.6.8 5 2.4 7.2 2.5 3 5.6 4.6 9.3 4.6h.1c2.7 0 5.1-.9 7.3-2.6.7-.6 1.3-1.2 1.6-1.6l-3.1-3.8zm59.2-15.6c-2.9 0-5.4.9-7.6 2.8-2.8 2.5-4.1 5.5-4.1 9 0 2.7.9 5.2 2.8 7.5 2.5 2.8 5.4 4.1 8.9 4.1h.1c3 0 5.6-1.1 7.9-3.1l-2.9-3.5c-1.5 1.4-3.2 2-5 2-1.1 0-2.1-.3-3.2-.8-1.7-.9-2.9-2.2-3.5-4H798c.1-.7.2-1.5.2-2.3 0-2.7-.9-5.2-2.8-7.6-2.5-2.7-5.5-4.1-8.9-4.1zm-6.7 9.4l.5-1.1c1.6-2.4 3.6-3.6 6.1-3.6 1.1 0 2.3.3 3.5.9 1.6 1 2.6 2.3 3.2 3.8h-13.3zm-5.1-9.4c-3.7 0-6.8.9-9.3 2.7h-.1v-2.7h-4.7v23.4h4.7v-11.5c0-.8.2-1.6.5-2.6 1.4-3.2 4.3-4.7 8.8-4.7l.1-4.6z"/><path class="st1" d="M700 126.5l9.7-11.7h-6l-.6.7-6.1 7.4-6.8-8.1h-5.9l.9 1 8.6 10.7-9.7 11.7h6.1l6.7-8 6.8 8h6.1zm-159.5-13h.6c1.1-.4 1.7-1.1 1.7-2.2l-.1-.5c-.4-1.2-1.1-1.8-2.2-1.8l-.7.1c-1.1.4-1.6 1.1-1.6 2.1v.1l.1.4c.4 1.3 1.1 1.8 2.2 1.8zm35.2 13c0-1 .2-2 .5-2.9.5-1.3 1.3-2.3 2.3-3 .1-.1.1-.1.2-.1.2-.1.3-.2.5-.3.1-.1.2-.1.3-.2.2-.1.4-.1.6-.2.2 0 .3-.1.5-.1s.3-.1.5-.1h2.6c.2 0 .3.1.5.1s.3.1.5.1c.2.1.4.1.6.2.1.1.2.1.3.2.2.1.3.2.5.3.1 0 .1.1.2.1 1 .7 1.8 1.6 2.3 3 .4.9.5 1.9.5 2.9v11.2h4.5v-11.5c0-1.4-.3-2.9-.9-4.4-.9-2.1-2.1-3.7-3.7-4.8-1.5-1.1-3.4-1.8-5.6-1.9h-2.3c-2.2.2-4 .8-5.6 1.9s-2.8 2.7-3.7 4.8c-.6 1.5-.8 2.9-.8 4.4v11.5h4.5v-11.2h.2zm-37.4-11.4h4.5v22.6h-4.5zm-11.8 11.5c0-.8.2-1.6.5-2.5 1.3-3 4.1-4.6 8.5-4.6V115c-3.6 0-6.6.9-9 2.6h-.1V115H522v22.6h4.5v-11zM430 115.1c-2.8 0-5.2.9-7.4 2.7-2.7 2.4-4 5.3-4 8.7 0 2.6.9 5.1 2.7 7.3 2.4 2.7 5.2 4 8.6 4h.1c2.9 0 5.4-1 7.6-3l-2.9-3.5c-1.4 1.3-3 2-4.8 2-1.1 0-2.1-.2-3.1-.7-1.7-.9-2.8-2.2-3.3-3.8H441c.1-.7.2-1.4.2-2.3 0-2.6-.9-5-2.7-7.3-2.3-2.8-5.2-4.1-8.5-4.1zm-6.5 9.1l.4-1.1c1.5-2.3 3.5-3.5 5.9-3.5 1.1 0 2.2.3 3.4.8 1.5 1 2.5 2.2 3.1 3.7l-12.8.1zm197-9.1h4.5v22.6h-4.5zm-12.4 18.1c-1.1 0-2.2-.3-3.3-.8-2.3-1.5-3.5-3.5-3.5-5.9 0-1.2.3-2.3 1-3.5 1.5-2.2 3.5-3.3 5.7-3.3 2.4 0 4.3 1 5.7 3.1l3-3.6c-2.4-2.7-5.2-4-8.6-4-2.9 0-5.4 1-7.7 2.9-2.5 2.4-3.7 5.2-3.7 8.4 0 2.5.8 4.8 2.3 6.9 2.4 2.9 5.4 4.4 9 4.4h.1c2.6 0 4.9-.8 7-2.5.7-.6 1.2-1.1 1.6-1.5l-3-3.5c-1.4 1.9-3.3 2.9-5.6 2.9zm66.6-4.8c-1.1-2.8-3.5-4.2-7.2-4.2h-6.1l-.8-.2c-.9-.3-1.4-1-1.4-2 0-.6.2-1.2.6-1.8.3-.4 1.1-.6 2.3-.6h12v-4.5h-12c-2.6 0-4.5.7-5.7 2.1-1.2 1.5-1.8 3-1.8 4.7 0 1.9.6 3.5 1.8 4.8 1.5 1.3 3 2 4.8 2h6.5c1.8 0 2.8.8 2.8 2.3l-.2 1c-.4.9-1.1 1.3-2.1 1.3H651v-18.1h-4.5v2.2h-.1c-2.1-1.5-4.3-2.2-6.7-2.2-2.3 0-4.5.7-6.5 2-3.2 2.4-4.8 5.6-4.8 9.3 0 2.4.8 4.7 2.3 6.9 2.5 3 5.4 4.5 8.8 4.5h.6c2.2 0 4.3-.7 6.4-2.2v2.2h22.2c.9 0 1.8-.2 2.8-.7 2.5-1.2 3.7-3.3 3.7-6 0-1.1-.2-1.9-.5-2.8zm-28.2-1.8c0 1.2-.4 2.5-1.2 3.7-1.5 1.9-3.3 2.9-5.4 2.9h-.3c-1.1 0-2.1-.3-3.1-.8-2.4-1.5-3.6-3.5-3.6-6 0-1.3.4-2.6 1.3-3.9 1.5-1.9 3.3-2.9 5.5-2.9 1.2 0 2.3.3 3.5.9 2.2 1.5 3.4 3.4 3.4 5.8v.3h-.1zM622.8 109l-.7.1c-1.1.4-1.6 1.1-1.6 2.1v.1l.1.4c.4 1.1 1.1 1.7 2.1 1.7h.7c1.1-.4 1.7-1.1 1.7-2.2l-.1-.5c-.5-1.1-1.2-1.7-2.2-1.7zm-66.2 28.7c3 0 5.5-1 7.7-3l-2.9-3.5c-1.4 1.3-3 2-4.8 2-1.1 0-2.1-.2-3.1-.7-1.6-.9-2.8-2.2-3.3-3.8h17.5c.1-.7.2-1.4.2-2.3 0-2.6-.9-5-2.7-7.3-2.4-2.7-5.3-4-8.6-4-2.8 0-5.2.9-7.4 2.7-2.7 2.4-4 5.3-4 8.7 0 2.6.9 5.1 2.7 7.3 2.5 2.6 5.3 3.9 8.7 3.9zm-5.9-14.6c1.5-2.3 3.5-3.5 5.9-3.5 1.1 0 2.2.3 3.4.8 1.5 1 2.6 2.2 3.1 3.7h-12.8l.4-1zm-43.1-8c-2.8 0-5.2.9-7.4 2.7-2.7 2.4-4 5.3-4 8.7 0 2.6.9 5.1 2.7 7.3 2.4 2.7 5.3 4 8.6 4h.1c2.8 0 5.4-1 7.6-3l-2.9-3.5c-1.4 1.3-3 2-4.8 2-1.1 0-2.1-.2-3.1-.7-1.7-.9-2.8-2.2-3.3-3.8h17.5c.1-.7.2-1.4.2-2.3 0-2.6-.9-5-2.7-7.3-2.3-2.8-5.2-4.1-8.5-4.1zm-6.5 9.1l.4-1.1c1.5-2.3 3.5-3.5 5.9-3.5 1.1 0 2.2.3 3.4.8 1.5 1 2.5 2.2 3.1 3.7l-12.8.1zm-43.9 2.2l9.4-11.3h-5.8l-.6.6-5.9 7.2-6.6-7.8h-5.8l9.4 11.3-9.4 11.3h5.9l6.4-7.7 6.6 7.8h5.9zm34-7c-2.4-2.9-5.4-4.3-9-4.3-2.4 0-4.6.7-6.7 2.2h-.1v-2.2H471v32.7h4.5v-12.3h.1c2.1 1.5 4.2 2.2 6.3 2.2h.9c2.4 0 4.8-.9 7.1-2.8 2.5-2.4 3.8-5.1 3.8-8.1v-.7c-.1-2.4-.9-4.6-2.5-6.7zm-2.1 7.1c0 1.4-.4 2.7-1.3 4-1.6 1.8-3.3 2.7-5.1 2.7h-.7c-.9 0-1.9-.3-3-.8-2.4-1.5-3.6-3.5-3.6-6 0-1.3.4-2.7 1.3-3.9 1.5-1.9 3.4-2.9 5.5-2.9 1.3 0 2.6.4 3.9 1.2 2 1.5 2.9 3.3 2.9 5.5v.2h.1zm-51.6-64.4c-.7-1.1-1.5-1.8-2.6-2.3s-2.2-.7-3.4-.7c-.9 0-1.7.1-2.6.3-.8.2-1.6.5-2.3 1-.7.4-1.2 1-1.6 1.7s-.6 1.6-.6 2.5c0 .8.1 1.4.4 2 .2.6.6 1.1 1.2 1.6.5.5 1.3.9 2.2 1.3.9.4 2 .8 3.3 1.2s2.5.8 3.7 1.3 2.3 1.1 3.2 1.8c.9.7 1.7 1.6 2.2 2.7s.8 2.4.8 4.1-.3 3.1-1 4.3c-.7 1.2-1.5 2.2-2.6 3s-2.3 1.4-3.7 1.8c-1.4.4-2.9.6-4.4.6-1 0-1.9-.1-2.9-.3-1-.2-1.9-.4-2.8-.8s-1.7-.8-2.5-1.4-1.5-1.3-2-2.1l3.4-2.8c.7 1.2 1.7 2.1 3 2.8 1.3.6 2.6.9 4.1.9.8 0 1.7-.1 2.6-.4s1.6-.6 2.3-1.1c.7-.5 1.3-1.1 1.7-1.8.4-.7.7-1.6.7-2.5 0-1-.2-1.9-.5-2.5s-.9-1.2-1.6-1.7-1.6-.9-2.7-1.3-2.4-.8-3.9-1.3c-1.2-.4-2.3-.8-3.3-1.3s-1.9-1.1-2.6-1.8c-.7-.7-1.3-1.6-1.7-2.5-.4-1-.6-2.2-.6-3.5 0-1.6.3-3 .9-4.2s1.5-2.2 2.5-3c1.1-.8 2.3-1.4 3.6-1.8 1.3-.4 2.8-.6 4.2-.6 1.9 0 3.6.3 5.1.9 1.6.6 2.9 1.6 4.2 3l-3.4 2.9zm8.6-3.2c0-.7.3-1.3.8-1.9.5-.5 1.2-.8 1.9-.8.8 0 1.4.3 1.9.8s.8 1.2.8 1.9c0 .8-.3 1.4-.8 1.9s-1.1.8-1.9.8-1.4-.3-1.9-.8c-.6-.4-.8-1.1-.8-1.9zm.8 8.6h3.7v22h-3.7v-22zm22.4 3.1h-6.5v13c0 .6.2 1.1.4 1.6s.5.8 1 1.1c.4.3 1.1.4 1.9.4.5 0 1.1-.1 1.6-.2.6-.1 1.1-.3 1.6-.6l.1 3.3c-.6.3-1.3.5-2.1.6-.8.1-1.5.2-2.2.2-1.3 0-2.4-.2-3.1-.5-.8-.3-1.4-.8-1.8-1.5-.4-.6-.7-1.4-.9-2.3-.1-.9-.2-1.9-.2-3.1v-12h-4.8v-3.1h4.8v-6.2h3.7v6.2h6.5v3.1zm3.5-11.7c0-.7.3-1.3.8-1.9.5-.5 1.2-.8 1.9-.8.8 0 1.4.3 1.9.8s.8 1.2.8 1.9c0 .8-.3 1.4-.8 1.9s-1.1.8-1.9.8-1.4-.3-1.9-.8c-.5-.4-.8-1.1-.8-1.9zm.9 8.6h3.7v22h-3.7v-22zm9.1 11c0-1.7.3-3.3.9-4.7.6-1.4 1.4-2.6 2.4-3.6s2.3-1.8 3.7-2.4c1.4-.6 3-.8 4.7-.8s3.3.3 4.7.8c1.4.6 2.7 1.4 3.7 2.4s1.8 2.2 2.4 3.6.9 3 .9 4.7-.3 3.3-.9 4.7c-.6 1.4-1.4 2.6-2.4 3.6s-2.3 1.8-3.7 2.4c-1.4.6-3 .8-4.7.8s-3.3-.3-4.7-.8c-1.4-.6-2.7-1.4-3.7-2.4s-1.8-2.2-2.4-3.6c-.6-1.4-.9-2.9-.9-4.7zm3.9 0c0 1.2.2 2.2.5 3.2.4 1 .9 1.8 1.6 2.6.7.7 1.5 1.3 2.5 1.7s2 .6 3.2.6 2.3-.2 3.2-.6c1-.4 1.8-1 2.5-1.7s1.2-1.6 1.6-2.6.5-2.1.5-3.2c0-1.2-.2-2.2-.5-3.2-.4-1-.9-1.8-1.6-2.6-.7-.7-1.5-1.3-2.5-1.7-1-.4-2-.6-3.2-.6s-2.3.2-3.2.6c-1 .4-1.8 1-2.5 1.7s-1.2 1.6-1.6 2.6c-.3 1-.5 2.1-.5 3.2zM540 90.4c-2.5 0-4.9-.4-7-1.3s-3.9-2.1-5.5-3.6c-1.6-1.6-2.8-3.4-3.6-5.5-.9-2.1-1.3-4.5-1.3-7s.4-4.8 1.3-7c.9-2.1 2.1-4 3.6-5.5 1.6-1.6 3.4-2.8 5.5-3.6 2.1-.9 4.4-1.3 7-1.3 2.5 0 4.9.4 7 1.3 2.1.9 3.9 2.1 5.5 3.6 1.6 1.6 2.8 3.4 3.6 5.5.9 2.1 1.3 4.5 1.3 7s-.4 4.8-1.3 7c-.9 2.1-2.1 4-3.6 5.5-1.6 1.6-3.4 2.8-5.5 3.6-2.1.8-4.4 1.3-7 1.3zm0-3.7c1.9 0 3.7-.4 5.3-1.1s3-1.7 4.2-3 2.1-2.7 2.7-4.4c.6-1.7 1-3.5 1-5.4s-.3-3.7-1-5.4c-.6-1.7-1.5-3.1-2.7-4.4-1.2-1.3-2.5-2.2-4.2-3-1.6-.7-3.4-1.1-5.3-1.1s-3.7.4-5.3 1.1c-1.6.7-3 1.7-4.2 3-1.2 1.3-2.1 2.7-2.7 4.4-.6 1.7-1 3.5-1 5.4s.3 3.7 1 5.4c.6 1.7 1.5 3.1 2.7 4.4s2.5 2.2 4.2 3c1.6.7 3.4 1.1 5.3 1.1zm24.4-16.1h-4.8v-3.1h4.8v-4.9c0-1.3.1-2.6.4-3.7.3-1.1.7-2.1 1.3-2.9.6-.8 1.4-1.4 2.4-1.9s2.2-.7 3.7-.7c.5 0 1 0 1.5.1s1 .2 1.3.4l-.5 3.3c-.9-.3-1.7-.5-2.5-.5-.9 0-1.7.2-2.2.5s-.9.8-1.2 1.4c-.3.6-.4 1.3-.5 2.1 0 .8-.1 1.7-.1 2.6v4.2h5.4v3.1H568v18.9h-3.7l.1-18.9zm11.8-11.7c0-.7.3-1.3.8-1.9.5-.5 1.2-.8 1.9-.8.8 0 1.4.3 1.9.8s.8 1.2.8 1.9c0 .8-.3 1.4-.8 1.9s-1.1.8-1.9.8c-.8 0-1.4-.3-1.9-.8-.5-.4-.8-1.1-.8-1.9zm.9 8.6h3.7v22h-3.7v-22zm26 5.5c-.8-.9-1.6-1.6-2.5-2s-1.9-.6-3-.6c-1.2 0-2.3.2-3.2.6-.9.4-1.7 1-2.3 1.8s-1.1 1.6-1.4 2.6c-.3 1-.5 2-.5 3.2 0 1.1.2 2.2.5 3.2.4 1 .9 1.9 1.5 2.6.6.8 1.4 1.3 2.3 1.8.9.4 1.9.6 3.1.6 2.4 0 4.3-.9 5.6-2.7l2.7 2.6c-1.1 1.2-2.3 2.1-3.8 2.7-1.4.6-3 .8-4.6.8-1.7 0-3.2-.3-4.7-.8-1.4-.6-2.6-1.4-3.6-2.4s-1.8-2.3-2.3-3.7c-.5-1.4-.8-3-.8-4.7s.3-3.2.8-4.6 1.3-2.6 2.3-3.7c1-1 2.2-1.8 3.6-2.4 1.4-.6 2.9-.9 4.6-.9 1.6 0 3.2.3 4.6.8 1.5.6 2.7 1.4 3.8 2.6l-2.7 2.6zm5.9-14.1c0-.7.3-1.3.8-1.9.5-.5 1.2-.8 1.9-.8.8 0 1.4.3 1.9.8s.8 1.2.8 1.9c0 .8-.3 1.4-.8 1.9s-1.1.8-1.9.8c-.8 0-1.4-.3-1.9-.8-.5-.4-.8-1.1-.8-1.9zm.9 8.6h3.7v22h-3.7v-22zm10.1 2.9c1.1-1.2 2.5-2 4-2.6 1.6-.5 3.1-.8 4.7-.8 3.3 0 5.6.8 7 2.3s2.2 3.9 2.2 7v9.4c0 .6 0 1.3.1 2s.1 1.3.2 1.9h-3.5c-.1-.5-.2-1.1-.2-1.7v-1.6h-.1c-.7 1.1-1.7 2.1-2.9 2.8-1.2.7-2.7 1.1-4.3 1.1-1.1 0-2.2-.1-3.2-.4s-1.8-.7-2.6-1.2c-.7-.5-1.3-1.2-1.8-2-.4-.8-.7-1.8-.7-2.8 0-1.8.5-3.2 1.4-4.3.9-1 2.1-1.8 3.5-2.3s2.9-.8 4.5-.9 3.1-.2 4.4-.2h1.4v-.7c0-1.6-.5-2.8-1.4-3.6-1-.8-2.3-1.2-4-1.2-1.2 0-2.4.2-3.5.6-1.1.4-2.2 1-3 1.8l-2.2-2.6zm10.6 8.6c-2.3 0-4.2.3-5.6 1-1.4.7-2.1 1.7-2.1 3.2 0 1.4.5 2.4 1.4 2.9.9.6 2.1.9 3.5.9 1.1 0 2-.2 2.8-.5.8-.4 1.5-.8 2-1.4s.9-1.3 1.2-2.1c.3-.8.4-1.7.5-2.6V79h-3.7zm13.8-25h3.7v35.5h-3.7V54z"/></svg>